<svg width="105" height="153" viewBox="0 0 105 153" fill="none" xmlns="http://www.w3.org/2000/svg">
<path d="M49.7737 110.397H42.5977C42.5977 76.4681 70.2011 48.8646 104.13 48.8646V56.0406C74.1108 56.0406 49.7737 80.3777 49.7737 110.397Z" fill="#FFEEDF"/>
<path d="M63.8119 110.391H56.6358C56.6358 84.2028 77.9424 62.8963 104.131 62.8963V70.0723C81.9021 70.0723 63.8119 88.1554 63.8119 110.391Z" fill="#FFEEDF"/>
<path d="M15.517 102.375H22.7217C26.76 61.0199 61.7253 28.5919 104.131 28.5919C104.131 24.5607 100.686 21.3872 96.6693 21.7232C53.7345 25.304 19.3624 59.5117 15.517 102.375Z" fill="#FFEEDF"/>
<path d="M29.2047 102.372H36.4153H36.4308C40.4119 68.5427 69.2519 42.2115 104.131 42.2115C104.131 38.1446 100.608 35.0069 96.5695 35.4143C61.1967 38.9594 32.9571 67.0632 29.2119 102.372H29.2047Z" fill="#FFEEDF"/>
<path d="M36.4308 95.9657H4.03774L1.71484 102.384H36.4308V95.9657Z" fill="#FFEEDF"/>
<path d="M104.13 75.3709V110.393H97.7116V81.582C97.7116 78.1512 100.499 75.3709 103.923 75.3709H104.13Z" fill="#FFEEDF"/>
<path d="M93.8243 104.007H60.7905V110.391H93.8243V104.007Z" fill="#FFEEDF"/>
<path d="M45.3726 103.981H46.2732V110.399H38.9613C38.9613 106.861 41.8346 103.981 45.3797 103.981H45.3726Z" fill="#FFEEDF"/>
<path d="M104.13 75.3714V110.394H97.7116V81.5825C97.7116 78.1518 100.499 75.3714 103.923 75.3714H104.13Z" fill="#FFEEDF"/>
<path d="M94.7708 77.8086V110.394H88.3524V84.0197C88.3524 80.5889 91.1399 77.8086 94.5635 77.8086H94.7708Z" fill="#FFEEDF"/>
<path d="M83.589 0.725586C80.0439 0.725586 77.1706 3.59886 77.1706 7.144V14.6131H83.589V7.144H89.0497V14.6131C92.5948 14.6131 95.4681 11.7398 95.4681 8.19468V0.725586H83.589Z" fill="#FFEEDF"/>
<path d="M95.468 8.03514C45.5002 12.2307 5.59591 52.3377 1.71484 102.384L8.91948 102.374C12.5718 58.5891 45.8861 23.0948 88.6565 16.1046C92.5947 15.4613 95.468 12.0306 95.468 8.04228V8.03514Z" fill="#FFEEDF"/>
<path d="M104.13 50.7356V69.3262H97.7116V55.26C97.7116 52.7584 99.7415 50.7356 102.236 50.7356H104.13Z" fill="#FFEEDF"/>
<path d="M76.0642 108.604L71.6328 101.528L77.6224 100.12L82.0538 107.196L76.0642 108.604Z" fill="#FFEEDF"/>
<path d="M79.5671 108.604L83.9986 101.528L78.009 100.12L73.5776 107.196L79.5671 108.604Z" fill="#FFEEDF"/>
<path d="M83.9979 95.1095H78.0512C74.5064 95.1095 71.6328 97.9832 71.6328 101.528H83.9979V95.1095Z" fill="#FFEEDF"/>
<path d="M97.1211 0.731445H103.54V7.14987C99.9944 7.14987 97.1211 4.27658 97.1211 0.731445Z" fill="#E67238"/>
<path d="M97.1211 15.2126C97.1211 11.6746 99.9944 8.79416 103.54 8.79416V15.2126H97.1211Z" fill="#E67238"/>
<path d="M16.1749 103.978V110.396H9.75653C9.75653 106.858 12.6298 103.978 16.1749 103.978Z" fill="#E67238"/>
<path d="M1.625 103.976V110.394H8.04341C8.04341 106.856 5.17014 103.976 1.625 103.976Z" fill="#E67238"/>
<path d="M36.3012 103.979V110.398H29.8828C29.8828 106.86 32.7561 103.979 36.3012 103.979Z" fill="#E67238"/>
<path d="M0 129.502L6.26481 114.192H8.59489L14.8597 129.502H11.4305L7.45183 118.849L3.42916 129.502H0ZM4.30843 126.712L5.29762 123.901H9.58407L10.5952 126.712H4.30843Z" fill="#E67238"/>
<path d="M18.7216 129.721C17.9596 129.721 17.3221 129.495 16.8092 129.041C16.2963 128.572 16.0398 127.833 16.0398 126.822V114.192H19.0514V126.229C19.0514 126.493 19.1173 126.683 19.2492 126.8C19.3811 126.903 19.5496 126.954 19.7548 126.954C19.8867 126.954 20.0112 126.939 20.1285 126.91C20.2457 126.881 20.3703 126.851 20.5022 126.822V129.392C20.1798 129.509 19.8647 129.59 19.5569 129.634C19.2492 129.692 18.9708 129.721 18.7216 129.721Z" fill="#E67238"/>
<path d="M26.8547 129.502L33.1195 114.192H35.4496L41.7144 129.502H38.2853L34.3066 118.849L30.2839 129.502H26.8547ZM31.1632 126.712L32.1523 123.901H36.4388L37.45 126.712H31.1632Z" fill="#E67238"/>
<path d="M43.0893 129.502V118.673H46.1228V121.616L45.7051 121.638C45.7491 121.023 45.925 120.474 46.2327 119.991C46.5551 119.508 46.9581 119.134 47.4417 118.871C47.9253 118.593 48.4236 118.454 48.9365 118.454C49.3028 118.454 49.6545 118.505 49.9916 118.607C50.3287 118.71 50.6877 118.878 51.0687 119.113L49.6179 121.836C49.4567 121.734 49.2442 121.646 48.9804 121.573C48.7313 121.485 48.4749 121.441 48.2111 121.441C47.9473 121.441 47.6908 121.492 47.4417 121.595C47.1926 121.697 46.9728 121.851 46.7823 122.056C46.5918 122.246 46.4379 122.502 46.3206 122.825C46.2474 123.03 46.1887 123.293 46.1448 123.615C46.1155 123.923 46.1008 124.384 46.1008 124.999V129.502H43.0893Z" fill="#E67238"/>
<path d="M59.2641 129.502L59.0443 128.052V122.649C59.0443 122.063 58.8465 121.638 58.4508 121.375C58.0698 121.111 57.5715 120.98 56.9561 120.98C56.3845 120.98 55.7837 121.089 55.1536 121.309C54.5381 121.529 54.0105 121.814 53.5709 122.166L52.164 120.079C52.9847 119.479 53.798 119.061 54.604 118.827C55.41 118.578 56.282 118.454 57.2198 118.454C58.7293 118.454 59.9089 118.827 60.7589 119.574C61.6089 120.321 62.0339 121.346 62.0339 122.649V129.502H59.2641ZM56.1208 129.721C55.3294 129.721 54.6187 129.575 53.9885 129.282C53.3584 128.989 52.8601 128.572 52.4938 128.03C52.1274 127.474 51.9442 126.837 51.9442 126.119C51.9442 125.49 52.0761 124.948 52.3399 124.494C52.6037 124.04 52.9554 123.688 53.395 123.44C53.7467 123.235 54.1424 123.088 54.582 123C55.0217 122.912 55.4833 122.868 55.9669 122.868H59.2861V125.087H56.4065C56.2013 125.087 56.0108 125.109 55.835 125.153C55.6591 125.182 55.4979 125.248 55.3514 125.351C55.2342 125.438 55.1389 125.548 55.0656 125.68C55.007 125.812 54.9777 125.958 54.9777 126.119C54.9777 126.485 55.1169 126.778 55.3954 126.998C55.6884 127.203 56.0768 127.305 56.5604 127.305C57.0147 127.305 57.425 127.21 57.7914 127.02C58.1724 126.829 58.4728 126.566 58.6926 126.229C58.9271 125.892 59.0443 125.512 59.0443 125.087L59.7478 126.734C59.5133 127.496 59.1982 128.096 58.8025 128.535C58.4215 128.96 57.9965 129.268 57.5276 129.458C57.0733 129.634 56.6044 129.721 56.1208 129.721Z" fill="#E67238"/>
<path d="M70.4276 129.721C69.944 129.721 69.4531 129.626 68.9549 129.436C68.4713 129.246 68.0316 128.901 67.636 128.404C67.2549 127.891 66.9692 127.166 66.7787 126.229L67.4381 126.712V129.502H64.4486V114.192H67.4381V121.507L66.8666 121.814C66.9985 121.009 67.2403 120.364 67.592 119.881C67.9437 119.383 68.3687 119.025 68.8669 118.805C69.3652 118.571 69.8854 118.454 70.4276 118.454C71.263 118.454 72.0177 118.673 72.6918 119.113C73.3805 119.552 73.9301 120.189 74.3404 121.023C74.7507 121.858 74.9559 122.876 74.9559 124.077C74.9559 125.16 74.7727 126.127 74.4064 126.976C74.0546 127.825 73.5417 128.499 72.8676 128.997C72.1935 129.48 71.3802 129.721 70.4276 129.721ZM69.5484 126.954C70.032 126.954 70.4496 126.844 70.8013 126.624C71.1677 126.39 71.4461 126.061 71.6366 125.636C71.8272 125.197 71.9224 124.677 71.9224 124.077C71.9224 123.476 71.8272 122.964 71.6366 122.539C71.4461 122.114 71.1677 121.785 70.8013 121.551C70.4496 121.316 70.032 121.199 69.5484 121.199C69.0648 121.199 68.6398 121.324 68.2734 121.573C67.9217 121.807 67.6506 122.136 67.4601 122.561C67.2696 122.986 67.1743 123.491 67.1743 124.077C67.1743 124.662 67.2696 125.175 67.4601 125.614C67.6506 126.039 67.9217 126.368 68.2734 126.602C68.6398 126.837 69.0648 126.954 69.5484 126.954Z" fill="#E67238"/>
<path d="M76.9631 129.502V118.673H79.9746V129.502H76.9631ZM76.9191 117.092V114.192H80.0625V117.092H76.9191Z" fill="#E67238"/>
<path d="M83.3368 133.983L85.5789 128.579L81.5343 118.673H84.8316L87.1836 125.57L89.5796 118.673H92.8329L86.5901 133.983H83.3368Z" fill="#E67238"/>
<path d="M101.103 129.502L100.883 128.052V122.649C100.883 122.063 100.685 121.638 100.289 121.375C99.9082 121.111 99.41 120.98 98.7945 120.98C98.2229 120.98 97.6221 121.089 96.992 121.309C96.3765 121.529 95.8489 121.814 95.4093 122.166L94.0024 120.079C94.8231 119.479 95.6364 119.061 96.4424 118.827C97.2484 118.578 98.1204 118.454 99.0583 118.454C100.568 118.454 101.747 118.827 102.597 119.574C103.447 120.321 103.872 121.346 103.872 122.649V129.502H101.103ZM97.9592 129.721C97.1678 129.721 96.4571 129.575 95.8269 129.282C95.1968 128.989 94.6985 128.572 94.3322 128.03C93.9658 127.474 93.7826 126.837 93.7826 126.119C93.7826 125.49 93.9145 124.948 94.1783 124.494C94.4421 124.04 94.7938 123.688 95.2334 123.44C95.5851 123.235 95.9808 123.088 96.4204 123C96.8601 122.912 97.3217 122.868 97.8053 122.868H101.125V125.087H98.2449C98.0398 125.087 97.8493 125.109 97.6734 125.153C97.4975 125.182 97.3363 125.248 97.1898 125.351C97.0726 125.438 96.9773 125.548 96.904 125.68C96.8454 125.812 96.8161 125.958 96.8161 126.119C96.8161 126.485 96.9553 126.778 97.2338 126.998C97.5269 127.203 97.9152 127.305 98.3988 127.305C98.8531 127.305 99.2634 127.21 99.6298 127.02C100.011 126.829 100.311 126.566 100.531 126.229C100.766 125.892 100.883 125.512 100.883 125.087L101.586 126.734C101.352 127.496 101.037 128.096 100.641 128.535C100.26 128.96 99.8349 129.268 99.366 129.458C98.9117 129.634 98.4428 129.721 97.9592 129.721Z" fill="#E67238"/>
<path d="M50.2451 148.809C48.8382 148.809 47.5926 148.473 46.5082 147.799C45.4237 147.125 44.5738 146.188 43.9583 144.987C43.3428 143.787 43.0351 142.381 43.0351 140.77C43.0351 139.159 43.3428 137.761 43.9583 136.575C44.5884 135.374 45.4604 134.437 46.5741 133.763C47.6879 133.09 48.9775 132.753 50.4429 132.753C52.0989 132.753 53.5204 133.17 54.7074 134.005C55.9091 134.825 56.7737 135.96 57.3012 137.41L54.3337 138.486C54.026 137.622 53.535 136.956 52.8609 136.487C52.2015 136.004 51.3955 135.762 50.4429 135.762C49.5783 135.762 48.8236 135.967 48.1788 136.377C47.534 136.773 47.0357 137.344 46.684 138.09C46.347 138.837 46.1785 139.731 46.1785 140.77C46.1785 141.81 46.347 142.71 46.684 143.472C47.0357 144.219 47.534 144.797 48.1788 145.207C48.8236 145.602 49.5783 145.8 50.4429 145.8C50.8972 145.8 51.3588 145.734 51.8278 145.602C52.3114 145.471 52.751 145.251 53.1467 144.943C53.557 144.636 53.8867 144.197 54.1359 143.626C54.385 143.04 54.5096 142.315 54.5096 141.451V140.638L55.213 142.835H50.7946V140.023H57.3012V148.436H54.5315L54.0919 146.108L54.6414 146.547C54.363 147.03 54.004 147.44 53.5643 147.777C53.1394 148.114 52.6411 148.37 52.0696 148.546C51.5127 148.721 50.9045 148.809 50.2451 148.809Z" fill="#E67238"/>
<path d="M59.7259 148.436V137.607H62.7594V140.551L62.3418 140.573C62.3857 139.957 62.5616 139.408 62.8693 138.925C63.1917 138.442 63.5947 138.069 64.0783 137.805C64.5619 137.527 65.0602 137.388 65.5731 137.388C65.9395 137.388 66.2912 137.439 66.6282 137.541C66.9653 137.644 67.3243 137.812 67.7053 138.047L66.2545 140.77C66.0933 140.668 65.8808 140.58 65.6171 140.507C65.3679 140.419 65.1115 140.375 64.8477 140.375C64.5839 140.375 64.3275 140.426 64.0783 140.529C63.8292 140.631 63.6094 140.785 63.4189 140.99C63.2284 141.18 63.0745 141.436 62.9573 141.759C62.884 141.964 62.8254 142.227 62.7814 142.549C62.7521 142.857 62.7374 143.318 62.7374 143.933V148.436H59.7259Z" fill="#E67238"/>
<path d="M73.6679 148.656C72.6128 148.656 71.6676 148.414 70.8322 147.931C69.9969 147.447 69.3375 146.781 68.8539 145.932C68.3849 145.068 68.1505 144.094 68.1505 143.011C68.1505 141.912 68.3849 140.939 68.8539 140.089C69.3375 139.24 69.9896 138.581 70.8103 138.112C71.6456 137.629 72.5981 137.388 73.6679 137.388C74.723 137.388 75.6609 137.629 76.4816 138.112C77.3169 138.581 77.969 139.24 78.438 140.089C78.9216 140.939 79.1634 141.912 79.1634 143.011C79.1634 144.094 78.9216 145.068 78.438 145.932C77.969 146.781 77.3169 147.447 76.4816 147.931C75.6609 148.414 74.723 148.656 73.6679 148.656ZM73.6679 146.02C74.1955 146.02 74.6424 145.903 75.0088 145.668C75.3752 145.434 75.6536 145.09 75.8441 144.636C76.0346 144.182 76.1299 143.64 76.1299 143.011C76.1299 142.366 76.0346 141.824 75.8441 141.385C75.6536 140.946 75.3752 140.609 75.0088 140.375C74.6424 140.141 74.1955 140.023 73.6679 140.023C73.1403 140.023 72.686 140.141 72.305 140.375C71.9387 140.609 71.6529 140.946 71.4477 141.385C71.2572 141.824 71.162 142.366 71.162 143.011C71.162 143.64 71.2572 144.182 71.4477 144.636C71.6529 145.09 71.9387 145.434 72.305 145.668C72.686 145.903 73.1403 146.02 73.6679 146.02Z" fill="#E67238"/>
<path d="M85.0828 148.656C84.1596 148.656 83.3975 148.48 82.7967 148.128C82.2105 147.762 81.7782 147.257 81.4998 146.613C81.2213 145.954 81.0821 145.192 81.0821 144.328V137.607H84.0936V143.67C84.0936 144.094 84.1376 144.49 84.2255 144.856C84.3281 145.207 84.5113 145.493 84.7751 145.712C85.0535 145.932 85.4638 146.042 86.006 146.042C86.6655 146.042 87.1418 145.851 87.4349 145.471C87.7426 145.075 87.9404 144.541 88.0284 143.867C88.1163 143.179 88.1603 142.403 88.1603 141.539V137.607H91.1938V148.436H88.1603V146.086L88.512 146.371C88.1749 147.221 87.6986 147.814 87.0832 148.15C86.4823 148.487 85.8155 148.656 85.0828 148.656Z" fill="#E67238"/>
<path d="M93.7505 152.917V137.607H96.74V140.397L96.0806 140.836C96.2711 139.899 96.5569 139.181 96.9379 138.684C97.3335 138.186 97.7732 137.849 98.2568 137.673C98.755 137.483 99.246 137.388 99.7296 137.388C100.682 137.388 101.495 137.637 102.17 138.134C102.844 138.618 103.357 139.284 103.708 140.133C104.075 140.983 104.258 141.949 104.258 143.033C104.258 144.219 104.053 145.236 103.642 146.086C103.232 146.92 102.682 147.557 101.994 147.997C101.32 148.436 100.565 148.656 99.7296 148.656C99.1874 148.656 98.6671 148.546 98.1689 148.326C97.6706 148.106 97.2456 147.748 96.8939 147.25C96.5422 146.752 96.3004 146.108 96.1685 145.317L96.74 145.602V152.917H93.7505ZM98.8503 145.91C99.3339 145.91 99.7515 145.793 100.103 145.559C100.47 145.324 100.748 144.995 100.939 144.57C101.129 144.131 101.224 143.618 101.224 143.033C101.224 142.432 101.129 141.92 100.939 141.495C100.748 141.056 100.47 140.726 100.103 140.507C99.7515 140.272 99.3339 140.155 98.8503 140.155C98.3667 140.155 97.9417 140.272 97.5753 140.507C97.2236 140.741 96.9525 141.07 96.762 141.495C96.5715 141.92 96.4763 142.432 96.4763 143.033C96.4763 143.618 96.5715 144.123 96.762 144.548C96.9525 144.973 97.2236 145.31 97.5753 145.559C97.9417 145.793 98.3667 145.91 98.8503 145.91Z" fill="#E67238"/>
</svg>
